<svg width="17" height="17" viewBox="0 0 17 17" fill="none" xmlns="http://www.w3.org/2000/svg">
<g clip-path="url(#clip0_221_12751)">
<path opacity="0.1" fill-rule="evenodd" clip-rule="evenodd" d="M-7 7C-7 -1.83656 0.163444 -9 9 -9C17.8366 -9 25 -1.83656 25 7C25 15.8366 17.8366 23 9 23C0.163444 23 -7 15.8366 -7 7Z" fill="white"/>
<path d="M8.4375 0C4.3303 0 1 3.3303 1 7.4375C1 11.5447 4.3303 14.875 8.4375 14.875C12.5447 14.875 15.875 11.5447 15.875 7.4375C15.875 3.3303 12.5447 0 8.4375 0ZM10.7274 10.9752C10.7274 10.9752 10.5421 11.4393 10.0304 11.2166L8.1349 9.7631L6.9704 8.8519L6.9755 8.8094C6.9755 8.8094 10.3755 5.7528 10.5149 5.6236L10.6084 5.4655C10.6169 5.3074 10.3568 5.4655 10.3568 5.4655L5.8518 8.3266L3.975 7.6942C3.975 7.6942 3.686 7.5922 3.6588 7.3695C3.6316 7.1468 3.9835 7.0261 3.9835 7.0261L11.4431 4.1004C11.4431 4.1004 12.0568 3.8318 12.0568 4.2772L10.7274 10.9752Z" fill="white"/>
</g>
<defs>
<clipPath id="clip0_221_12751">
<rect width="17" height="17" fill="white"/>
</clipPath>
</defs>
</svg>
