<svg width="32" height="32" viewBox="0 0 32 32" fill="none" xmlns="http://www.w3.org/2000/svg">
<path opacity="0.1" fill-rule="evenodd" clip-rule="evenodd" d="M0 16C0 7.16344 7.16344 0 16 0C24.8366 0 32 7.16344 32 16C32 24.8366 24.8366 32 16 32C7.16344 32 0 24.8366 0 16Z" fill="white"/>
<path d="M22.4062 11.2087C22.4021 10.7718 22.2258 10.3542 21.9158 10.0465C21.6058 9.73866 21.1869 9.56548 20.7501 9.56445L10.242 9.53125C9.80554 9.53134 9.38697 9.70447 9.078 10.0127C8.76904 10.3209 8.59489 10.7391 8.59375 11.1755V22.0156C8.59375 22.9221 9.33352 23.6094 10.242 23.6094H19.2188L18.7871 22.1484L22.4062 25.4688V11.2087ZM17.7794 19.9507C17.7794 19.9507 17.4899 19.6057 17.2481 19.3092C18.302 19.0124 18.7041 18.3633 18.7041 18.3633C18.4147 18.5553 18.1045 18.714 17.7794 18.8364C17.4041 18.9923 17.0133 19.1079 16.6136 19.1814C15.925 19.3079 15.2188 19.3052 14.5311 19.1734C14.1266 19.0983 13.7307 18.9826 13.3494 18.8281C13.1477 18.7509 12.9516 18.6598 12.7624 18.5555C12.7382 18.5396 12.7143 18.5316 12.69 18.5154C12.6737 18.5074 12.6658 18.4994 12.6568 18.4994C12.5121 18.4191 12.4317 18.3629 12.4317 18.3629C12.4317 18.3629 12.8175 18.9968 13.8388 19.3013C13.5975 19.6061 13.3 19.959 13.3 19.959C11.5233 19.9029 10.8479 18.7481 10.8479 18.7481C10.8479 16.1895 12.0057 14.1123 12.0057 14.1123C13.1635 13.254 14.2569 13.2782 14.2569 13.2782L14.3372 13.3745C12.8899 13.7836 12.2308 14.4171 12.2308 14.4171C12.2308 14.4171 12.4075 14.3208 12.705 14.1923C13.5653 13.8154 14.2489 13.7192 14.5311 13.6873C14.5762 13.6779 14.6219 13.6725 14.6679 13.671C15.2067 13.6011 15.7519 13.5958 16.2919 13.6551C17.1398 13.7525 17.9613 14.0111 18.7121 14.4171C18.7121 14.4171 18.0769 13.8145 16.7099 13.4061L16.8225 13.2779C16.8225 13.2779 17.9238 13.2537 19.074 14.1133C19.074 14.1133 20.2318 16.1905 20.2318 18.7491C20.2318 18.7398 19.5561 19.8946 17.7794 19.9507V19.9507Z" fill="white"/>
<path d="M14.0408 16.2383C13.5826 16.2383 13.2207 16.6314 13.2207 17.1205C13.2207 17.6096 13.5906 18.0027 14.0408 18.0027C14.499 18.0027 14.8609 17.6099 14.8609 17.1205C14.8692 16.6304 14.499 16.2383 14.0408 16.2383ZM16.9753 16.2383C16.5171 16.2383 16.1552 16.6314 16.1552 17.1205C16.1552 17.6096 16.5251 18.0027 16.9753 18.0027C17.4338 18.0027 17.7954 17.6099 17.7954 17.1205C17.7954 16.6311 17.4259 16.2383 16.9753 16.2383Z" fill="white"/>
</svg>
