<svg width="32" height="32" viewBox="0 0 32 32" fill="none" xmlns="http://www.w3.org/2000/svg">
<path opacity="0.1" fill-rule="evenodd" clip-rule="evenodd" d="M0 16C0 7.16344 7.16344 0 16 0C24.8366 0 32 7.16344 32 16C32 24.8366 24.8366 32 16 32C7.16344 32 0 24.8366 0 16Z" fill="white"/>
<path d="M15.4375 9C11.3303 9 8 12.3303 8 16.4375C8 20.5447 11.3303 23.875 15.4375 23.875C19.5447 23.875 22.875 20.5447 22.875 16.4375C22.875 12.3303 19.5447 9 15.4375 9ZM17.7274 19.9752C17.7274 19.9752 17.5421 20.4393 17.0304 20.2166L15.1349 18.7631L13.9704 17.8519L13.9755 17.8094C13.9755 17.8094 17.3755 14.7528 17.5149 14.6236L17.6084 14.4655C17.6169 14.3074 17.3568 14.4655 17.3568 14.4655L12.8518 17.3266L10.975 16.6942C10.975 16.6942 10.686 16.5922 10.6588 16.3695C10.6316 16.1468 10.9835 16.0261 10.9835 16.0261L18.4431 13.1004C18.4431 13.1004 19.0568 12.8318 19.0568 13.2772L17.7274 19.9752Z" fill="white"/>
</svg>
