<svg width="32" height="32" viewBox="0 0 32 32" fill="none" xmlns="http://www.w3.org/2000/svg">
<path opacity="0.1" fill-rule="evenodd" clip-rule="evenodd" d="M0 16C0 7.16344 7.16344 0 16 0C24.8366 0 32 7.16344 32 16C32 24.8366 24.8366 32 16 32C7.16344 32 0 24.8366 0 16Z" fill="white"/>
<path fill-rule="evenodd" clip-rule="evenodd" d="M16.5208 13.405L16.5544 13.9586L15.9948 13.8908C13.9579 13.631 12.1784 12.7497 10.6676 11.2695L9.92891 10.5351L9.73865 11.0775C9.33575 12.2864 9.59316 13.5632 10.4325 14.4219C10.8802 14.8964 10.7795 14.9642 10.0073 14.6818C9.73865 14.5914 9.50363 14.5236 9.48124 14.5575C9.4029 14.6366 9.6715 15.6647 9.88414 16.0715C10.1751 16.6364 10.7683 17.1901 11.4174 17.5177L11.9658 17.7776L11.3167 17.7889C10.6899 17.7889 10.6676 17.8002 10.7347 18.0375C10.9585 18.7719 11.8427 19.5515 12.8276 19.8905L13.5214 20.1277L12.9171 20.4893C12.0218 21.009 10.9697 21.3028 9.91772 21.3254C9.41409 21.3367 9 21.3819 9 21.4158C9 21.5288 10.3654 22.1615 11.16 22.4101C13.5438 23.1445 16.3753 22.8281 18.5017 21.574C20.0126 20.6814 21.5235 18.9075 22.2286 17.1901C22.6091 16.2749 22.9896 14.6027 22.9896 13.8005C22.9896 13.2807 23.0232 13.2129 23.6499 12.5915C24.0192 12.2299 24.3662 11.8345 24.4333 11.7215C24.5452 11.5068 24.534 11.5068 23.9633 11.6989C23.012 12.0379 22.8777 11.9927 23.3477 11.4842C23.6947 11.1227 24.1088 10.4673 24.1088 10.2753C24.1088 10.2414 23.9409 10.2979 23.7506 10.3995C23.5492 10.5125 23.1015 10.682 22.7658 10.7837L22.1614 10.9758L21.613 10.6029C21.3108 10.3995 20.8856 10.1736 20.6617 10.1058C20.0909 9.9476 19.218 9.9702 18.7032 10.151C17.3042 10.6594 16.4201 11.9701 16.5208 13.405Z" fill="white"/>
</svg>
